<svg id="Слой_1" data-name="Слой 1" xmlns="http://www.w3.org/2000/svg" viewBox="0 0 83.7 26.14">
  <title>logo</title>
  <g>
    <path d="M597.29,463v-0.36l0.47-.11a2.11,2.11,0,0,0,1.08-.63,1.7,1.7,0,0,0,.4-1.17q0-1.33,0-2.65t0-2.65v-9h-2V446l0.79-.14a1.4,1.4,0,0,0,1-.5,2.86,2.86,0,0,0,.47-1.19,8.05,8.05,0,0,1,1.06-2.47,12.58,12.58,0,0,1,1.6-2,8,8,0,0,1,2.9-1.82,9.29,9.29,0,0,1,3-.52,5.79,5.79,0,0,1,2.63.59,2.26,2.26,0,0,1,.61,3.49,2.23,2.23,0,0,1-1.62.56,2.85,2.85,0,0,1-1.58-.47,4.77,4.77,0,0,1-1.4-1.66l-0.5-.61a1,1,0,0,0-.79-0.49,0.69,0.69,0,0,0-.58.59,24.44,24.44,0,0,0-.38,3q-0.13,1.69-.13,3.31h4v0.72h-4v14.26a1.71,1.71,0,0,0,1.44,1.76l0.9,0.22V463h-9.43Z" transform="translate(-597.26 -437.4)"/>
    <path d="M614.82,463.54a5.29,5.29,0,0,1-3.51-1.19,4.2,4.2,0,0,1-1.42-3.42,4,4,0,0,1,1.73-3.11,12.34,12.34,0,0,1,5.44-2.14l1.3-.23,1.51-.27v-2.84a7.15,7.15,0,0,0-.59-3.44,2,2,0,0,0-1.85-1,1.75,1.75,0,0,0-1.37.56,3.43,3.43,0,0,0-.65,1.93l-0.07.4a3.45,3.45,0,0,1-.76,2.27,2.24,2.24,0,0,1-1.69.72,2.17,2.17,0,0,1-1.55-.58,2,2,0,0,1-.61-1.55,3.34,3.34,0,0,1,1-2.48,6.41,6.41,0,0,1,2.72-1.51,12.81,12.81,0,0,1,3.67-.5,7.16,7.16,0,0,1,4.95,1.57q1.75,1.57,1.75,5.09v8a1.39,1.39,0,0,0,1.51,1.62h0.79l0.32,0.29A5.31,5.31,0,0,1,626,463a4.61,4.61,0,0,1-2.29.47,3.88,3.88,0,0,1-2.5-.74,3.45,3.45,0,0,1-1.21-2,15,15,0,0,1-2.21,2A4.93,4.93,0,0,1,614.82,463.54Zm2.2-2.2a2.78,2.78,0,0,0,1.35-.34,9.61,9.61,0,0,0,1.49-1.06v-6l-0.72.14-0.83.14a5.51,5.51,0,0,0-2.65,1.46,3.8,3.8,0,0,0-1,2.75,3.15,3.15,0,0,0,.68,2.21A2.17,2.17,0,0,0,617,461.34Z" transform="translate(-597.26 -437.4)"/>
    <path d="M634.73,463.54a6.07,6.07,0,0,1-2.57-.54,4,4,0,0,1-1.84-1.75,6.33,6.33,0,0,1-.63-3.19l0.11-9.25a1.92,1.92,0,0,0-.29-1.19,1.57,1.57,0,0,0-.9-0.5l-0.43-.14v-0.36l6.44-1.26,0.36,0.36-0.18,5.11v8.68a2.05,2.05,0,0,0,.67,1.69,2.57,2.57,0,0,0,1.67.54,5.24,5.24,0,0,0,1.8-.29,6.47,6.47,0,0,0,1.58-.86l0.14-11.74a2,2,0,0,0-.25-1.17,1.5,1.5,0,0,0-.94-0.49l-0.36-.11v-0.36l6.3-1.37,0.36,0.36-0.11,5.11v9.76a2.8,2.8,0,0,0,.22,1.22,1.68,1.68,0,0,0,.94.72l0.36,0.11V463l-6.3.36-0.32-2.12a12.83,12.83,0,0,1-2.57,1.64A7.45,7.45,0,0,1,634.73,463.54Z" transform="translate(-597.26 -437.4)"/>
    <path d="M648.63,463v-0.36l0.54-.14a1.67,1.67,0,0,0,1-.65,2.08,2.08,0,0,0,.27-1.12V449.46a2,2,0,0,0-.27-1.17,1.53,1.53,0,0,0-1-.52l-0.54-.14v-0.36l6.19-2.09,0.36,0.36,0.32,3.1v0.29a7.57,7.57,0,0,1,1.31-1.85,7.37,7.37,0,0,1,1.8-1.39,4.07,4.07,0,0,1,2-.54,2.75,2.75,0,0,1,2.09.76,2.66,2.66,0,0,1,.72,1.91,2.48,2.48,0,0,1-.7,1.89,2.35,2.35,0,0,1-1.67.67,3.32,3.32,0,0,1-2.66-1.51l-0.07-.07a1.2,1.2,0,0,0-.83-0.56,1,1,0,0,0-.86.45,2.72,2.72,0,0,0-.59.77,9.39,9.39,0,0,0-.45,1v10a1.67,1.67,0,0,0,1.26,1.8l1.15,0.32V463h-9.32Z" transform="translate(-597.26 -437.4)"/>
    <path d="M673.54,445.14a7.88,7.88,0,0,1,4,1,6.52,6.52,0,0,1,2.54,2.59,7.74,7.74,0,0,1,.88,3.73q0,0.4,0,.81a3.25,3.25,0,0,1-.14.74H670q0,3.89,1.39,5.6a4.8,4.8,0,0,0,4,1.71,6.36,6.36,0,0,0,2.92-.58,7.12,7.12,0,0,0,2.09-1.69l0.36,0.32a8.28,8.28,0,0,1-3,3.1,8.47,8.47,0,0,1-4.45,1.12,9.19,9.19,0,0,1-4.54-1.1,7.75,7.75,0,0,1-3.1-3.15,10.1,10.1,0,0,1-1.12-4.9,9.28,9.28,0,0,1,1.3-5,8.71,8.71,0,0,1,3.33-3.15A9,9,0,0,1,673.54,445.14Zm-0.11.72a2.65,2.65,0,0,0-1.78.63,4.31,4.31,0,0,0-1.15,2.23,20,20,0,0,0-.45,4.52h6.16a14,14,0,0,0-.29-5.65A2.45,2.45,0,0,0,673.43,445.86Z" transform="translate(-597.26 -437.4)"/>
  </g>
</svg>
